<mxfile host="app.diagrams.net" modified="2024-03-20T15:19:54.131Z" agent="Mozilla/5.0 (Windows NT 10.0; Win64; x64; rv:121.0) Gecko/20100101 Firefox/121.0" version="23.1.5" etag="jMDLYw5w_1fQ5Ko1mhQT" type="github">
  <diagram name="Page-1" id="1-I6lqufSLHPwYWhzfUW">
    <mxGraphModel>
      <root>
        <mxCell id="0" />
        <mxCell id="1" parent="0" />
      </root>
    </mxGraphModel>
  </diagram>
</mxfile>
